<?xml version="1.0" encoding="utf-8"?>
<!-- Generator: Adobe Illustrator 22.1.0, SVG Export Plug-In . SVG Version: 6.00 Build 0)  -->
<svg version="1.1" id="Layer_1" xmlns="http://www.w3.org/2000/svg" xmlns:xlink="http://www.w3.org/1999/xlink" x="0px" y="0px"
	 viewBox="0 0 307 128" style="enable-background:new 0 0 307 128;" xml:space="preserve">
<style type="text/css">
	.st0{fill:#00FF00;}
	.st1{fill:none;stroke:#000000;stroke-width:6;stroke-linecap:round;stroke-linejoin:round;}
	.st2{fill:none;stroke:#000000;stroke-width:6;stroke-linecap:round;}
</style>
<g transform="matrix(1.4674 1.7112 -1.7112 1.4674 65.169 -25.599)">
	<path class="st0" d="M20.8,27.8L42,3c-3,3-3,5.4-3,9v36c0,6-6,9-9,9s-9-3-9-9C20.9,36.1,20.7,40.6,20.8,27.8L20.8,27.8z"/>
	<path class="st0" d="M38.7,15.1l-7.5-0.2"/>
	<path class="st0" d="M38.5,24.2L31,24"/>
	<path class="st0" d="M38.5,33.1L31,32.9"/>
	<path class="st0" d="M38.5,42L31,41.8"/>
</g>
<path class="st1" d="M86.4,9.6l35.2,41.1c-9.5-0.7-13.6,2.8-19.8,8.1l-61.6,52.8c-10.3,8.8-24.2,2.9-28.6-2.2s-8.1-19.8,2.2-28.6
	l61.6-52.8C81.6,22.7,85.7,19.1,86.4,9.6L86.4,9.6z"/>
<path class="st2" d="M96,62.8L85.3,49.7"/>
<path class="st2" d="M80.3,75.8L69.6,62.7"/>
<path class="st2" d="M65,88.9L54.3,75.8"/>
<path class="st2" d="M49.8,102L39.1,88.9"/>
<g>
	<g>
		<path d="M133.9,39.8h10.6v12.3l-0.6,6.9h0.3c2.6-2.7,6.5-5.3,11.8-5.3c8,0,11.6,5.5,11.6,14.5v22.1h-10.6V69.5
			c0-4.8-1.4-6.9-5.2-6.9c-2.8,0-4.8,1.3-7.2,3.7v23.8h-10.6V39.8z"/>
		<path d="M176.7,103.4l1.9-8.1c0.9,0.3,1.9,0.5,2.8,0.5c4.1,0,6.3-1.9,7.5-4.7l0.7-1.9l-15.4-34.8h10.5l6,15.3
			c1.3,3.4,2.4,7,3.5,10.7h0.3c1-3.6,2.2-7.2,3.3-10.7l5.2-15.3h10l-14.1,36.1c-3.5,8.9-7.7,13.6-16.8,13.6
			C180.1,104.2,178.2,103.9,176.7,103.4z"/>
		<path d="M218.5,72.4c0-11.7,7.5-18.7,15.3-18.7c3.9,0,6.6,1.4,9,3.8h0.2l-0.5-5.5V39.8h10.6v50.4h-8.6l-0.8-3.7h-0.3
			c-2.6,2.6-6.3,4.5-9.9,4.5C224.4,91.1,218.5,84,218.5,72.4z M242.5,79.1V64.7c-1.9-1.8-3.9-2.4-6-2.4c-3.9,0-7.2,3.1-7.2,9.9
			c0,7,2.6,10.2,6.9,10.2C238.6,82.4,240.6,81.5,242.5,79.1z"/>
		<path d="M262.2,72.3c0-11.7,9-18.7,18.6-18.7c11,0,16.8,7.4,16.8,17.1c0,1.9-0.3,3.9-0.4,4.7h-27.1v-7.1H290l-1.7,2
			c0-5.7-2.5-8.7-7.2-8.7c-5.2,0-8.7,3.5-8.7,10.6c0,7.4,4,10.7,11,10.7c3.2,0,6-0.9,9.2-2.5l3.5,6.4c-4.1,2.6-9.4,4.2-14.2,4.2
			C270.9,91.1,262.2,84.2,262.2,72.3z"/>
	</g>
</g>
</svg>
